<svg width="150" height="36" viewBox="0 0 150 36" fill="none" xmlns="http://www.w3.org/2000/svg">
    <path d="M54.8066 18.8217H48.6191V23.0111H55.8809V25.6H45.3965V9.95938H55.8594V12.5697H48.6191V16.2973H54.8066V18.8217ZM61.6387 21.808L63.7979 13.977H67.042L63.1211 25.6H60.1562L56.2354 13.977H59.4795L61.6387 21.808ZM73.6162 25.8148C71.9118 25.8148 70.5225 25.2921 69.4482 24.2465C68.3812 23.2009 67.8477 21.808 67.8477 20.0678V19.767C67.8477 18.5997 68.0732 17.5577 68.5244 16.641C68.9756 15.7172 69.613 15.0082 70.4365 14.5141C71.2673 14.0128 72.2126 13.7621 73.2725 13.7621C74.8623 13.7621 76.112 14.2634 77.0215 15.266C77.9382 16.2686 78.3965 17.6902 78.3965 19.5307V20.7982H70.9951C71.0954 21.5574 71.3962 22.1661 71.8975 22.6244C72.4059 23.0828 73.0469 23.3119 73.8203 23.3119C75.0163 23.3119 75.9508 22.8787 76.624 22.0121L78.1494 23.7201C77.6839 24.379 77.0537 24.8946 76.2588 25.267C75.4639 25.6322 74.583 25.8148 73.6162 25.8148ZM73.2617 16.2758C72.6458 16.2758 72.1445 16.4835 71.7578 16.8988C71.3783 17.3142 71.1348 17.9086 71.0273 18.682H75.3457V18.435C75.3314 17.7475 75.1452 17.2175 74.7871 16.8451C74.429 16.4656 73.9206 16.2758 73.2617 16.2758ZM83.0264 13.977L83.123 15.3197C83.9538 14.2813 85.0674 13.7621 86.4639 13.7621C87.6956 13.7621 88.6123 14.1238 89.2139 14.8471C89.8154 15.5704 90.1234 16.6518 90.1377 18.0912V25.6H87.0332V18.1664C87.0332 17.5076 86.89 17.0313 86.6035 16.7377C86.3171 16.4369 85.8408 16.2865 85.1748 16.2865C84.3011 16.2865 83.6458 16.6589 83.209 17.4037V25.6H80.1045V13.977H83.0264ZM96.2178 11.1195V13.977H98.2051V16.2543H96.2178V22.0551C96.2178 22.4848 96.3001 22.7927 96.4648 22.9789C96.6296 23.1651 96.9447 23.2582 97.4102 23.2582C97.7539 23.2582 98.0583 23.2331 98.3232 23.183V25.5356C97.7145 25.7218 97.0879 25.8148 96.4434 25.8148C94.2663 25.8148 93.1562 24.7156 93.1133 22.517V16.2543H91.416V13.977H93.1133V11.1195H96.2178ZM99.1289 19.6811C99.1289 18.5281 99.3509 17.5004 99.7949 16.5981C100.239 15.6957 100.876 14.9975 101.707 14.5033C102.545 14.0092 103.515 13.7621 104.618 13.7621C106.187 13.7621 107.465 14.2419 108.453 15.2016C109.449 16.1612 110.004 17.4646 110.118 19.1117L110.14 19.9066C110.14 21.6898 109.642 23.1221 108.646 24.2035C107.651 25.2777 106.315 25.8148 104.64 25.8148C102.964 25.8148 101.625 25.2777 100.622 24.2035C99.6266 23.1293 99.1289 21.6684 99.1289 19.8207V19.6811ZM102.233 19.9066C102.233 21.0095 102.441 21.8546 102.856 22.4418C103.272 23.0219 103.866 23.3119 104.64 23.3119C105.392 23.3119 105.979 23.0255 106.401 22.4525C106.824 21.8725 107.035 20.9486 107.035 19.6811C107.035 18.5997 106.824 17.7618 106.401 17.1674C105.979 16.573 105.384 16.2758 104.618 16.2758C103.859 16.2758 103.272 16.573 102.856 17.1674C102.441 17.7546 102.233 18.6677 102.233 19.9066ZM118.347 22.3881C118.347 22.0085 118.157 21.7113 117.777 21.4965C117.405 21.2745 116.803 21.0775 115.973 20.9057C113.208 20.3256 111.826 19.1511 111.826 17.3822C111.826 16.351 112.252 15.4916 113.104 14.8041C113.964 14.1094 115.085 13.7621 116.467 13.7621C117.942 13.7621 119.12 14.1094 120.001 14.8041C120.889 15.4988 121.333 16.4011 121.333 17.5111H118.229C118.229 17.0671 118.085 16.7019 117.799 16.4154C117.512 16.1218 117.065 15.975 116.456 15.975C115.933 15.975 115.529 16.0932 115.242 16.3295C114.956 16.5658 114.812 16.8666 114.812 17.2318C114.812 17.5756 114.974 17.8549 115.296 18.0697C115.625 18.2774 116.177 18.46 116.95 18.6176C117.724 18.768 118.375 18.9398 118.905 19.1332C120.545 19.7348 121.365 20.7768 121.365 22.2592C121.365 23.3191 120.91 24.1785 120.001 24.8373C119.091 25.489 117.917 25.8148 116.478 25.8148C115.504 25.8148 114.637 25.643 113.878 25.2992C113.126 24.9483 112.535 24.4721 112.105 23.8705C111.676 23.2618 111.461 22.6065 111.461 21.9047H114.404C114.433 22.4561 114.637 22.8787 115.017 23.1723C115.396 23.4659 115.905 23.6127 116.542 23.6127C117.136 23.6127 117.584 23.5017 117.885 23.2797C118.193 23.0505 118.347 22.7533 118.347 22.3881ZM132.43 19.7133H134.202V22.2162H132.43V25.6H129.325V22.2162H122.912L122.772 20.2611L129.293 9.95938H132.43V19.7133ZM125.866 19.7133H129.325V14.1918L129.121 14.5463L125.866 19.7133ZM146.599 25.6H135.878V23.4731L140.938 18.0805C141.632 17.3214 142.144 16.6589 142.474 16.0932C142.81 15.5274 142.979 14.9903 142.979 14.4818C142.979 13.7872 142.803 13.2429 142.452 12.849C142.101 12.448 141.6 12.2475 140.948 12.2475C140.246 12.2475 139.691 12.491 139.283 12.9779C138.882 13.4578 138.682 14.0915 138.682 14.8793H135.566C135.566 13.9268 135.792 13.0567 136.243 12.269C136.701 11.4812 137.346 10.8653 138.177 10.4213C139.007 9.97012 139.949 9.74454 141.002 9.74454C142.613 9.74454 143.863 10.1313 144.751 10.9047C145.646 11.6781 146.094 12.7703 146.094 14.1811C146.094 14.9545 145.893 15.7423 145.492 16.5443C145.091 17.3464 144.404 18.281 143.43 19.3481L139.874 23.0971H146.599V25.6Z" fill="white"/>
    <path fill-rule="evenodd" clip-rule="evenodd" d="M0 18.1065C0 27.9411 8.05887 36 18.1065 36C27.9411 36 36 27.9411 36 18.1065C36 8.05887 27.9411 0 18.1065 0C8.05887 0 0 8.05887 0 18.1065ZM33.7263 18.1065C33.7263 26.6854 26.6854 33.7263 18.1065 33.7263C9.34353 33.7263 2.27368 26.714 2.27368 18.1065C2.27368 9.3146 9.3146 2.27368 18.1065 2.27368C26.714 2.27368 33.7263 9.34353 33.7263 18.1065Z" fill="white"/>
    <path fill-rule="evenodd" clip-rule="evenodd" d="M16.4288 13.5917C16.7107 13.359 17.0649 13.2318 17.4305 13.2318C17.7922 13.2318 18.1429 13.3564 18.4235 13.5846L22.6335 17.0082C23.0074 17.3123 23.5156 17.3923 23.9648 17.218L25.9502 16.4474C26.1292 16.3779 26.3302 16.4036 26.4851 16.517C27.0788 16.9516 28.5751 18.0497 29.1289 18.482C30.4861 19.5416 31.486 20.25 31.486 20.25C31.486 20.25 31.4686 19.8601 31.486 19.4401C31.846 10.718 25.2324 4.39017 17.8022 4.50144C10.3803 4.61568 4.38132 10.5662 4.50178 18.8354C4.51309 19.5319 4.6193 20.25 4.6193 20.25L6.50953 18.8354L8.80622 17.1806C9.12242 16.9528 9.54513 16.9393 9.87525 17.1464L10.7991 17.7261C11.0088 17.8577 11.2793 17.8402 11.4703 17.6826L16.4288 13.5917Z" fill="white"/>
    <path fill-rule="evenodd" clip-rule="evenodd" d="M16.6359 34.7904C18.8195 35.0437 20.6187 34.6644 21.2437 34.486C21.5288 34.4046 22.5941 34.144 22.8452 34.0596C23.6863 33.777 24.9699 33.1782 25.7013 32.7418C26.7957 32.0887 27.5685 31.4007 28.6388 30.4354C31.015 28.2924 32.625 24.3249 32.625 23.92C32.625 23.8287 28.2146 20.5068 26.9191 19.5329C26.7151 19.3796 26.4318 19.4032 26.253 19.5853C26.0843 19.7571 26.0583 20.0226 26.1911 20.2234C26.6343 20.894 27.5743 22.3246 27.6195 22.4617C27.792 22.9849 27.5465 23.2804 27.3009 23.1231C27.0553 22.9658 21.5646 19.2672 21.5646 19.2672L18.2802 16.9963C17.8686 16.7117 17.3068 17.0063 17.3068 17.5066C17.3068 17.5066 17.1957 19.1166 17.1957 20.1676C17.1957 20.5941 17.1518 21.1118 16.6359 21.246C16.3774 21.3132 15.7234 21.3527 15.7234 21.3527L10.1751 20.9334C9.7985 20.905 9.58735 21.358 9.85127 21.6281C9.85127 21.6281 17.1957 26.5849 17.1957 26.9884C17.1957 27.846 14.552 26.4718 12.4773 25.4639C9.95207 24.2372 7.1464 23.1341 6.44733 22.8633C6.34241 22.8227 6.22786 22.8316 6.13032 22.8877C5.52896 23.2335 3.35693 24.4869 3.37514 24.5407C4.08779 26.6437 5.97805 29.7235 8.84189 31.7745C9.98699 32.5946 11.3079 33.3606 12.5939 33.8365C14.0645 34.3806 15.6064 34.7904 16.6359 34.7904Z" fill="white"/>
</svg>
