<?xml version="1.0" encoding="UTF-8"?>
<svg width="60px" height="60px" viewBox="0 0 60 60" version="1.1" xmlns="http://www.w3.org/2000/svg" xmlns:xlink="http://www.w3.org/1999/xlink">
    <title>1</title>
    <g id="1" stroke="none" stroke-width="1" fill="none" fill-rule="evenodd">
        <rect id="Rectangle" fill="#223A58" x="0" y="0" width="60" height="60" rx="30"></rect>
        <g id="noun_Chatbot_1563845" transform="translate(12.000000, 9.000000)" fill="#EA3B52" fill-rule="nonzero" stroke="#EA3B52">
            <g id="Group">
                <path d="M24.0595749,25.5319149 C22.0099722,26.4491727 19.7857699,26.9108549 17.5404261,26.8851066 C15.4293937,26.8593191 13.3463369,26.3986693 11.4212767,25.5319149 C11.1495079,25.4029424 10.8246434,25.5186998 10.695671,25.790467 C10.6935039,25.7950349 10.6914002,25.799632 10.6893613,25.8042551 C10.563038,26.0815949 10.6848129,26.4088635 10.9617014,26.5361705 C13.0247757,27.4697779 15.25907,27.9653216 17.5234044,27.9914892 L17.7361704,27.9914892 C20.0829105,27.9919628 22.4032058,27.4960003 24.544681,26.5361705 C24.8219981,26.4022113 24.9382149,26.0688067 24.8042557,25.7914896 C24.6702966,25.5141725 24.336892,25.3979574 24.0595749,25.5319149 Z" id="Path"></path>
                <path d="M29.140427,6.95319157 L18.2978723,6.95319157 L18.2978723,5.10638298 C19.6166294,4.80086391 20.438023,3.4841274 20.1325031,2.16536987 C19.8269848,0.84661217 18.5102471,0.02522 17.19149,0.330739149 C15.8727329,0.636258298 15.0513393,1.95299472 15.3568592,3.27175226 C15.5680555,4.18336749 16.2798747,4.89518757 17.19149,5.10638298 L17.19149,6.94468068 L6.34893617,6.94468068 C3.21715906,6.94467745 0.677035745,9.4809926 0.672340426,12.6127657 L0.672340426,29.0212753 C0.672340426,32.1563721 3.21383949,34.6978695 6.34893626,34.6978695 L19.5744681,34.6978695 C20.348936,35.991487 22.4936173,39.0723371 25.8553201,39.9829751 C25.9345391,39.9912344 26.0143979,39.9912344 26.0936169,39.9829751 C26.3859299,39.9829914 26.6608186,39.8439643 26.8340415,39.6085083 C27.0734779,39.3244902 27.1010379,38.9179896 26.9021282,38.6042527 C26.1662098,37.4180247 25.7552938,36.0590737 25.7106375,34.6638262 L29.1148929,34.6638262 C32.2433797,34.6732639 34.7897631,32.1497199 34.8085119,29.0212753 L34.8085119,12.6212765 C34.8085119,9.49087991 32.2708227,6.95319157 29.140427,6.95319157 Z M16.3744695,2.69787243 C16.3744695,1.95522553 16.9765034,1.3531914 17.7191503,1.3531914 C18.4617972,1.3531914 19.0638311,1.95522553 19.0638311,2.69787243 C19.0638311,3.44051932 18.4617972,4.04255319 17.7191503,4.04255319 L17.7191503,4.04255319 C16.9995361,4.02911532 16.4180967,3.45142774 16.4000004,2.73191489 L16.3744695,2.69787243 Z M33.7021304,29.0212753 C33.6974611,31.5400793 31.6592148,33.5821274 29.1404237,33.5914871 L24.7489378,33.5914871 L24.6808511,34.0425532 C24.5311039,35.6875059 24.8969545,37.3382925 25.7276591,38.7659568 C22.7659574,37.7446795 20.910638,34.7744686 20.3914885,33.855318 L20.2382968,33.5744654 L6.34893617,33.5744654 C3.83343549,33.5698294 1.79274698,31.5367418 1.77872349,29.0212752 L1.77872349,12.6212765 C1.78340706,10.0991603 3.82681991,8.05574783 6.34893617,8.05106383 L29.1404277,8.05106383 C31.6592188,8.06042281 33.6974651,10.1024709 33.7021304,12.6212765 L33.7021304,29.0212753 Z" id="Shape"></path>
                <path d="M14.8170211,17.702127 C14.8170211,15.798507 13.2738332,14.2553175 11.3702133,14.2553175 C9.46659336,14.2553175 7.92340383,15.7985054 7.92340383,17.7021254 C7.92340383,19.6057453 9.46659174,21.1489348 11.3702117,21.1489348 L11.3702133,21.1489348 C13.2738317,21.1489348 14.8170211,19.6057454 14.8170211,17.702127 Z M9.02978698,17.702127 C9.02978698,16.4095452 10.0776316,15.3617014 11.3702134,15.3617014 C12.6627935,15.3617014 13.7106389,16.4095452 13.7106389,17.702127 C13.7106389,18.9947088 12.6627951,20.0425525 11.3702134,20.0425525 C10.0776316,20.0425525 9.02978698,18.9947088 9.02978698,17.7021286 C9.02978698,17.702127 9.02978698,17.702127 9.02978698,17.702127 Z" id="Shape"></path>
                <path d="M24.1106398,14.26383 C22.2306677,14.2873317 20.7257014,15.8304011 20.7492032,17.7103716 C20.7727034,19.5903437 22.3157728,21.09531 24.1957449,21.0718082 C26.0590183,21.0485158 27.5573015,19.5315032 27.5574477,17.6680853 C27.5575938,15.7879671 26.0335751,14.2637115 24.1534586,14.2635637 C24.1391835,14.2635637 24.1249117,14.2636514 24.1106398,14.26383 Z M24.1106398,20.0425525 C22.818058,20.0425525 21.7702143,18.9947088 21.7702143,17.702127 C21.7702143,16.4095452 22.818058,15.3617014 24.1106398,15.3617014 C25.4032216,15.3617014 26.4510654,16.4095452 26.4510654,17.702127 C26.4510654,18.9947088 25.4032216,20.0425525 24.1106398,20.0425525 Z" id="Shape"></path>
            </g>
        </g>
    </g>
</svg>