<svg version="1.1" id="smLogo" xmlns="http://www.w3.org/2000/svg" xmlns:xlink="http://www.w3.org/1999/xlink" x="0px" y="0px"
	 width="238" height="55" viewBox="0 0 238 55" style="enable-background:new 0 0 238 55;" xml:space="preserve">
<style type="text/css">
	.st0{fill:#37B34A;}
	.st1{fill:#404344;}
</style>
<path id="polyLogo"  class="st0" d="M43.836,9.839c1.029,0.434,2.807,3.076,2.401,5.971
	c-1.99,1.6-4.397,2.747-6.704,3.111v18.451h6.863c-0.016,2.832-0.438,5.104-0.909,5.93H32.902V19.211h-8.736v14.374
	c0,7.244-4.095,10.828-9.298,10.828c-1.456,0-3.203-0.189-4.699-0.622c-0.688-0.947-1.042-3.745-1.116-7.234
	c3.46,1.688,8.16,2.467,8.556-2.96V20.12c-5.269,0.582-7.214,4.265-9.011,6.715c0.034-3.307,0.215-6.27,0.37-8.281
	c3.606-3.873,7.636-5.691,15.578-5.691h11.362C38.652,12.863,41.331,11.826,43.836,9.839 M27.689,4.554
	c-10.218,0-14.343,0.63-14.343,0.63C8.964,5.366,5.89,8.369,5.428,13.497c0,0-0.734,6.701-0.734,14.418s0.734,14.418,0.734,14.418
	c0.462,5.128,3.537,8.13,7.918,8.313c0,0,4.126,0.63,14.343,0.63s14.338-0.63,14.338-0.63c4.381-0.183,7.457-3.185,7.919-8.313
	c0,0,0.734-6.426,0.734-14.418c0-7.717-0.734-14.418-0.734-14.418c-0.462-5.128-3.537-8.13-7.919-8.313
	C42.028,5.184,37.907,4.554,27.689,4.554"/>
<path id="polyDesc" class="st1" d="M85.393,27.915c0-6.935,2.881-12.898,11.228-12.898c8.347,0,11.227,5.912,11.227,12.898s-2.847,12.898-11.227,12.898
	C88.24,40.813,85.393,34.85,85.393,27.915z M90.633,27.915c0,4.069,0.822,7.931,5.988,7.931c5.166,0,5.987-3.86,5.987-7.931
	c0-4.071-0.827-7.931-5.987-7.931C91.461,19.984,90.633,23.846,90.633,27.915z M217.388,15.624l4.577,7.629l4.577-7.629h6.203
	l-7.468,11.789l8.102,12.794h-6.213l-5.201-8.63l-5.201,8.63h-6.214l8.102-12.794l-7.468-11.789L217.388,15.624z M194.734,25.392
	h9.717v4.768h-9.717v5.161h11.415v4.966h-16.656V15.624h16.656v4.965h-11.415V25.392z M172.471,40.206V20.589h-6.764v-4.965h18.769
	v4.965h-6.765v19.617H172.471z M145.331,40.206h-4.966V15.624h5.241v15.142l9.73-15.142h4.965v24.582h-5.24V25.064L145.331,40.206z
	 M110.826,35.369c2.181,0.086,3.626-0.885,4.155-2.852c1.424-5.312,1.6-11.346,2.344-16.893h15.846v24.583h-5.242V20.589h-5.939
	c-0.333,3.43-0.926,9.402-1.932,13.149c-1.138,4.241-4.575,6.832-9.231,6.646V35.369z M60.317,40.206V15.624h19.192v24.583h-5.241
	V20.589h-8.71v19.617H60.317z"/>
</svg>
